<svg width="365" height="470" viewBox="0 0 365 470" fill="none" xmlns="http://www.w3.org/2000/svg">
<path d="M97.971 0.762574C96.4483 1.16862 93.2507 2.43753 90.8651 3.60493C85.5865 6.19349 80.8154 10.7616 71.527 22.1817C60.919 35.2768 60.4114 36.4442 60.4114 47.1538C60.4114 55.1733 60.1576 56.0868 55.4373 65.9336C53.6101 69.7403 50.3109 75.3235 47.164 79.8915L41.8854 87.505L36.0484 90.6011C27.1153 95.3214 24.8313 97.7577 18.5375 109.076C16.9133 112.02 14.1217 116.842 12.3452 119.837C7.87869 127.298 6.7113 130.039 6.05147 134.658C5.59466 137.754 5.59466 139.987 6.05147 144.149L6.66054 149.631L4.32575 153.894C-2.62785 166.786 -1.15592 179.424 8.43701 189.119C11.3301 191.961 13.0558 193.23 16.8625 195.057C29.4501 201.199 41.124 199.981 49.3465 191.707C52.5442 188.459 53.4578 188.256 58.7364 189.22C60.1069 189.525 63.609 189.982 66.5529 190.286C78.6329 191.606 93.606 187.698 103.3 180.744C111.32 175.009 116.852 168.766 121.573 160.188C124.973 153.945 123.755 154.503 134.972 153.996C153.651 153.184 172.024 147.55 182.632 139.429C184.104 138.261 185.373 137.449 185.475 137.551C185.576 137.652 186.388 139.226 187.302 141.053C189.738 145.875 191.362 150.493 191.312 152.371C191.312 153.843 190.906 154.249 186.947 156.787C176.846 163.233 166.746 176.075 164.411 185.363C164.106 186.733 163.954 189.627 164.056 192.215C164.36 197.138 164.005 196.225 173.598 216.933C176.44 223.075 181.567 234.393 185.018 242.058C188.469 249.722 192.936 259.569 194.915 263.883C198.57 271.75 211.411 300.427 220.7 321.44C226.13 333.673 227.552 335.754 232.17 337.936C236.536 339.966 241.104 340.626 248.971 340.373C255.112 340.169 256.787 339.966 261.355 338.545C264.248 337.632 267.091 336.972 267.649 337.073C270.035 337.429 276.43 351.945 278.206 360.929C279.983 370.217 280.693 372.704 282.419 376.308C284.297 380.267 290.083 388.54 294.956 394.326C296.732 396.407 303.28 404.528 309.574 412.345C328.861 436.454 356.168 468.735 357.843 469.446C359.518 470.156 363.223 469.852 364.086 468.989C364.39 468.684 364.695 467.111 364.847 465.537C365.05 462.441 364.238 459.497 353.529 423.004C339.469 375.141 334.394 359 332.313 354.99C331.297 353.062 328.455 349.61 324.496 345.499C317.898 338.596 316.629 336.617 313.33 328.09C312.365 325.602 311.096 322.659 310.589 321.643C310.081 320.578 309.624 319.41 309.624 319.004C309.624 318.598 312.061 316.822 315.005 315.096C326.932 307.99 332.668 301.29 335.003 291.748C336.678 285.099 336.322 283.018 332.059 272.41C327.288 260.634 324.141 253.579 316.071 235.865C312.315 227.694 307.137 216.324 304.549 210.589C298.661 197.494 285.617 170.136 279.374 157.752C273.638 146.382 270.593 141.865 267.395 139.733C261.863 135.977 252.625 134.353 242.931 135.368C238.16 135.876 225.115 138.667 221.918 139.885C221.258 140.139 221.207 139.885 221.461 137.906C221.765 135.825 221.613 135.368 220.04 133.338C217.705 130.343 215.776 125.065 215.624 121.258L215.522 118.162L218.314 115.675C219.887 114.304 221.918 111.919 222.882 110.396C224.405 107.858 224.76 107.554 226.283 107.554C231.409 107.554 240.494 103.747 244.453 99.8895C247.854 96.5903 250.24 90.0935 250.24 83.952C250.24 74.1561 244.25 64.7662 235.114 60.1981C231.054 58.2186 230.546 58.0663 225.623 57.9141C215.573 57.508 208.67 60.9087 203.747 68.5221L201.615 71.9228L198.367 72.2781C196.59 72.4811 193.596 72.9379 191.718 73.344C184.866 74.7651 185.475 75.1712 181.77 66.2889C179.942 62.0761 177.658 56.5944 176.643 54.1581C173.902 47.7121 169.842 40.7078 165.883 35.4799L162.431 30.9118L164.411 28.2217C167.812 23.6537 168.268 22.4355 168.268 17.969C168.218 11.2184 165.325 6.44728 159.64 3.96023C155.63 2.18376 151.265 2.08226 146.646 3.70646C142.027 5.2799 140.911 5.33064 137.713 3.96023C131.876 1.47317 120.913 -0.0495257 109.188 0.00123053C103.605 0.00123053 99.849 0.255012 97.971 0.762574ZM117.817 8.0715C119.086 8.0715 120.558 8.376 121.116 8.78205C122.029 9.49264 121.928 9.54343 119.695 10.1525C118.273 10.5586 117.157 11.1676 117.005 11.6752C116.852 12.132 115.634 12.9948 114.315 13.6039C108.681 16.1925 108.376 16.497 104.722 24.1105C102.285 29.0846 102.285 29.1353 102.336 34.2109C102.336 38.0684 102.59 39.9972 103.402 42.1797C107.513 53.2953 124.212 68.5221 142.129 77.506C146.443 79.6885 152.077 82.2263 154.564 83.1399C160.959 85.4239 167.659 88.4186 167.862 89.0276C168.218 90.195 164.512 90.9056 159.995 90.5503C154.513 90.1443 148.118 88.0633 137.916 83.4445C122.639 76.4401 112.995 70.2478 104.772 62.1268C93.4537 50.859 88.9364 39.3373 91.5757 28.2217C92.4893 24.3135 92.6416 21.4711 91.931 21.0143C91.1189 20.5575 88.9871 23.8059 87.769 27.3589C86.8046 30.0997 86.6016 31.7239 86.6016 37.0025C86.6016 42.6365 86.7539 43.8039 88.0228 47.4075C92.9461 61.6193 102.641 71.6183 120.304 80.6021C133.805 87.505 148.067 93.1389 158.777 95.8797C162.178 96.6918 166.035 97.8592 167.406 98.3668C168.725 98.8743 170.4 99.4327 171.111 99.5849C172.38 99.8895 172.481 99.8387 172.786 97.2502C172.989 95.829 173.395 93.748 173.699 92.6821C174.765 89.0784 180.602 85.2209 184.967 85.2209C186.693 85.2209 189.941 86.7436 191.718 88.3678C192.327 88.9769 193.799 91.2609 195.017 93.545C198.519 100.245 197.961 104.305 192.581 111.614C189.891 115.319 188.013 116.335 184.003 116.385C180.45 116.385 177.963 115.269 174.816 112.223L172.786 110.244L164.157 109.635C154.361 108.975 139.287 106.894 133.856 105.523C120.608 102.072 116.192 100.499 107.868 96.235C88.4288 86.2868 74.1663 71.1107 70.0043 55.9853C68.5324 50.6052 68.7862 40.6062 70.5119 36.6472C71.3747 34.7185 71.9838 34.0079 72.9482 33.8049C74.0141 33.6019 74.1663 33.7541 73.9126 34.6677C73.811 35.226 73.5065 38.1192 73.3035 41.063L72.9989 46.3924L75.5367 46.2402L78.1253 46.0371L77.8715 41.1646C77.3132 32.1807 79.5972 25.5316 85.3835 18.8318C89.0379 14.6698 92.2355 12.1827 96.9559 9.8987C100.864 8.07147 104.062 7.56394 110.66 7.86848C113.299 7.96999 116.548 8.0715 117.817 8.0715ZM156.341 11.6244C158.98 12.9948 159.894 14.416 159.894 17.3091C159.894 19.2378 159.589 20.05 158.523 21.2681C155.021 25.1763 148.321 23.7044 147.408 18.8318C146.697 15.0251 149.59 10.6093 152.838 10.6093C153.651 10.6093 155.224 11.0661 156.341 11.6244ZM132.739 16.5478C129.998 23.0953 129.897 25.4301 132.231 30.2519C134.719 35.2768 138.881 37.5101 145.936 37.5101C150.554 37.5101 151.265 37.9162 151.265 40.454C151.265 42.8395 150.554 43.9561 148.067 45.225C146.291 46.1894 145.124 46.3924 141.368 46.3924C137.358 46.3924 136.444 46.1894 133.754 44.9205C130.201 43.144 125.988 39.0836 124.415 35.8352C123.806 34.5663 123.045 32.1807 122.74 30.5565C121.573 24.1105 123.654 19.6946 129.085 17.1568C132.79 15.4819 133.247 15.3804 132.739 16.5478ZM141.52 19.0348C142.129 22.6385 142.941 24.1612 145.53 26.9021C147.052 28.5263 148.169 30.0489 148.017 30.3535C146.798 32.2822 139.49 31.0133 137.561 28.5262C136.241 26.8513 136.241 23.7551 137.51 20.9635C138.931 17.9182 141.165 16.8015 141.52 19.0348ZM115.837 26.3945C115.736 27.0543 115.533 28.4755 115.38 29.5921C115.228 30.658 115.33 32.0284 115.634 32.6375C115.939 33.1958 117.005 35.5306 118.07 37.7639C120.405 42.7888 126.039 48.6765 130.709 51.0112C133.399 52.3309 134.363 52.4832 139.084 52.5847C142.027 52.6355 144.565 52.6862 144.819 52.7369C145.022 52.7369 145.174 52.9907 145.174 53.2953C145.174 53.5998 144.717 53.7013 144.108 53.4983C143.347 53.2445 143.144 53.2953 143.398 53.7521C143.601 54.0566 143.347 54.6149 142.84 55.021C142.129 55.4778 141.774 55.5285 141.52 55.1225C141.266 54.7164 140.86 54.7165 139.997 55.1733C139.337 55.5286 137.459 55.8838 135.784 55.9346C134.109 55.9854 132.485 56.1884 132.181 56.3914C131.47 56.8482 127.765 55.9854 125.43 54.818C122.689 53.3968 118.629 49.5901 116.548 46.4432C113.807 42.3319 112.03 36.4442 112.335 32.6375C112.589 29.1353 114.365 24.618 115.33 24.9733C115.685 25.0748 115.939 25.7347 115.837 26.3945ZM166.746 52.4832C170.806 59.9443 176.136 74.6636 176.136 78.4703C176.136 79.4855 175.882 79.6377 174.004 79.6377C170.705 79.6377 170.248 79.1302 170.908 76.3386C171.517 73.75 170.857 70.5016 169.791 70.5016C169.436 70.5016 168.877 71.5675 168.522 72.8872C167.406 77.2522 166.999 78.0135 165.934 77.7597C164.411 77.3537 164.36 76.8969 165.477 74.3083C167.456 69.6895 168.065 59.8936 166.34 60.5027C166.035 60.6042 164.969 63.1927 163.954 66.2381C161.416 73.9023 160.452 75.4757 158.422 74.8159C157.457 74.5114 157.457 74.3591 159.132 71.872C162.178 67.2532 163.548 58.98 162.431 52.1786C162.076 50.0976 161.619 48.1689 161.416 47.9151C161.213 47.6106 160.909 46.5955 160.706 45.6311L160.401 43.8546L162.482 46.1387C163.599 47.4076 165.528 50.2499 166.746 52.4832ZM153.092 65.3752C152.382 66.1366 152.432 66.2889 153.295 66.8472C154.716 67.71 154.564 68.6744 152.686 70.5016C151.113 72.1258 150.504 72.1258 148.27 70.6539C148.169 70.6031 148.981 69.5373 150.098 68.3191C151.519 66.7964 152.382 65.2738 152.838 63.345L153.549 60.6041L153.701 62.5329C153.803 63.8018 153.6 64.8169 153.092 65.3752ZM155.63 63.2435C155.072 63.8018 154.666 62.939 155.072 62.0253C155.478 61.1625 155.478 61.1625 155.681 62.0253C155.833 62.5329 155.782 63.0912 155.63 63.2435ZM231.663 67.4562C235.064 69.182 239.226 73.8515 240.596 77.4552C242.169 81.668 241.916 88.114 239.936 91.4132C238.312 94.2555 236.079 96.1335 232.729 97.707C229.785 99.1281 227.552 99.2297 225.978 98.113C224.862 97.3517 224.354 96.032 225.42 96.6918C226.13 97.0979 225.927 96.1335 224.354 91.3117C221.918 83.7998 218.974 79.6377 213.441 75.831C211.919 74.7651 210.65 73.6485 210.65 73.344C210.65 71.5675 215.37 67.9638 219.431 66.6442C222.781 65.5783 228.668 65.9336 231.663 67.4562ZM65.3347 70.8569C65.1825 71.8213 63.9136 74.5621 62.4924 76.9984C59.1932 82.8354 58.1274 86.7436 59.9546 86.7436C61.325 86.7436 64.6749 82.6831 66.6036 78.7241L68.6847 74.3591L70.5119 76.6431C73.9125 80.8559 81.9828 88.8754 86.0433 92.073C92.0833 96.7933 98.0218 100.448 106.549 104.762C110.762 106.843 114.213 108.67 114.213 108.823C114.213 108.924 113.401 109.229 112.437 109.533C111.117 109.888 109.848 109.838 107.868 109.279C104.975 108.569 97.2097 104.864 93.8597 102.63C91.525 101.057 90.3576 101.361 90.3576 103.493C90.3576 106.234 95.3824 109.939 103.808 113.391C106.346 114.457 108.478 115.37 108.63 115.522C109.29 116.182 106.65 117.197 104.316 117.197C101.169 117.197 96.6006 115.776 91.2712 113.086C89.0887 112.02 87.2107 111.107 87.1092 111.107C87.0077 111.107 86.7031 111.817 86.5509 112.731C86.1956 114.203 86.3478 114.558 88.1243 116.081C90.8144 118.365 95.4839 120.547 99.8997 121.512C101.879 121.968 103.554 122.527 103.554 122.781C103.554 123.846 100.509 126.283 98.7831 126.587C96.3976 127.044 93.8597 126.13 88.3273 122.73C83.7593 119.989 81.9828 119.837 81.4245 122.121C80.8154 124.455 84.9266 127.501 92.3878 130.191C94.4688 130.902 96.296 131.612 96.3976 131.714C96.4991 131.815 96.1945 132.475 95.7377 133.186C95.0271 134.251 94.5196 134.454 92.3878 134.454C89.444 134.454 85.4342 133.033 82.2366 130.902C80.9677 130.089 79.3435 129.379 78.5821 129.379C77.4655 129.379 77.1102 129.683 76.7549 131.003C76.3996 132.323 76.4504 132.881 77.1102 133.541C78.7851 135.317 83.9115 137.957 87.3122 138.769C89.2917 139.226 91.0174 139.835 91.1697 140.088C91.6772 140.951 88.4796 143.591 86.9569 143.591C84.2161 143.54 80.9677 142.525 77.6178 140.596C73.4557 138.16 71.8823 137.754 71.0702 138.819C70.5119 139.429 70.5626 139.835 71.4255 140.951C73.8618 144.2 78.0746 146.382 84.9267 147.854C86.7031 148.26 86.7031 148.971 84.9267 149.428C81.8305 150.189 81.1707 152.422 83.9115 152.98C84.7744 153.184 85.8403 153.59 86.1956 153.843C86.6524 154.249 86.8046 154.046 86.8046 152.98C86.8046 151.255 87.4137 151.661 87.6167 153.539C87.7182 154.808 87.6675 154.858 85.891 154.503C84.8759 154.3 82.1351 153.996 79.851 153.742C76.3488 153.437 74.8262 152.98 70.7657 151.001C52.5442 142.22 42.7482 130.039 40.921 114.101C40.6165 111.31 40.6672 111.208 41.8854 110.904C42.596 110.701 43.1543 110.295 43.1543 109.939C43.4081 102.072 43.4588 101.615 44.4232 100.194L45.4383 98.6713L45.6921 102.986C45.9966 107.401 46.3012 108.569 47.367 108.569C49.2958 108.518 49.4988 107.807 49.7526 98.4176C50.0064 89.3322 50.0064 89.2307 51.2753 88.2663L52.5442 87.3019L52.8487 91.3624C53.204 95.7782 53.7623 96.9456 55.0312 95.8797C56.1986 94.9154 56.8585 92.0223 56.8585 87.6572C56.8585 85.5255 57.1122 82.5816 57.4168 81.1097C58.1274 77.7598 60.6652 72.7349 61.9341 72.0243C62.4924 71.7198 62.9492 71.263 62.9492 71.0092C62.9492 70.7554 63.203 69.9433 63.4568 69.2327C63.9136 68.0653 64.1166 67.9638 64.7764 68.5221C65.3347 68.9789 65.487 69.6895 65.3347 70.8569ZM202.935 81.9218L205.574 83.1399V81.668C205.574 80.2976 205.625 80.2468 207.198 80.7036C212.68 82.2771 218.822 94.357 216.791 99.5849C215.827 102.021 215.015 100.905 214.355 96.4381C213.746 92.276 211.969 87.708 210.802 87.3527C209.939 87.0989 209.99 88.8754 210.904 92.3268C211.817 95.626 211.868 99.6865 211.107 101.869C210.345 104.102 209.787 103.493 209.381 100.042C208.721 94.3571 206.691 88.7739 205.219 88.7739C204.356 88.7739 204.407 89.4337 205.574 93.5957C206.691 97.5039 206.894 101.615 206.031 103.848C205.625 104.965 205.422 105.067 205.067 104.508C204.762 104.102 204.559 102.833 204.559 101.666C204.559 98.9759 203.29 94.8646 201.26 90.7534C198.976 86.2868 197.352 84.4596 193.951 82.5309L191.109 80.9067L192.885 80.5514C195.728 80.0438 200.042 80.6021 202.935 81.9218ZM35.5408 101.311C35.5408 101.818 35.0333 103.696 34.475 105.523C33.6629 108.01 33.4091 110.244 33.4091 114.406C33.3583 123.237 34.678 127.399 40.2612 135.876C44.0171 141.611 50.5647 149.174 53.9653 151.712C57.569 154.452 66.5021 159.173 70.6641 160.543C78.8867 163.284 90.5606 164.147 97.7172 162.573C99.6967 162.167 101.879 161.711 102.59 161.558C103.554 161.355 104.011 161.508 104.265 162.218C105.128 164.299 97.8695 168.461 93.3522 168.461C92.6416 168.461 91.8295 168.715 91.4742 169.07C90.5606 169.984 83.607 169.679 78.4299 168.512C61.3758 164.705 49.3973 157.802 39.0938 145.976C31.7849 137.601 27.3691 126.638 27.2168 116.69C27.1661 111.665 27.2676 111.157 28.841 107.807C31.2266 102.732 35.5408 98.5698 35.5408 101.311ZM130.963 114.964C130.963 116.233 129.085 118.669 125.684 121.867C123.095 124.303 122.74 124.862 123.349 125.318C124.415 126.08 128.475 125.572 130.861 124.354C133.247 123.136 134.972 121.156 136.546 117.959C137.612 115.725 137.713 115.675 139.54 115.979C142.89 116.487 142.941 116.639 140.962 118.263C139.337 119.634 139.134 119.938 139.642 120.852C140.099 121.765 140.048 122.07 139.287 122.628C138.779 122.984 137.815 123.288 137.053 123.288C136.343 123.288 135.328 123.593 134.769 123.999C133.348 124.963 126.445 126.841 124.313 126.841C123.349 126.79 121.928 126.486 121.116 126.181L119.644 125.521L122.182 123.643C125.532 121.207 128.323 118.06 128.729 116.334C129.186 114.406 129.389 114.152 130.252 114.152C130.658 114.152 130.963 114.507 130.963 114.964ZM168.218 116.182C168.928 116.436 169.537 116.994 169.537 117.451C169.537 117.857 169.842 118.212 170.248 118.212C170.908 118.212 173.09 120.7 173.09 121.41C173.09 121.613 165.325 128.262 161.772 131.054C161.01 131.663 159.741 132.78 158.98 133.541C157.965 134.556 157.254 134.861 156.442 134.658C155.63 134.404 155.326 134.556 155.326 135.165C155.326 135.673 154.564 136.332 153.448 136.84C152.382 137.246 151.316 137.906 151.011 138.312C150.25 139.327 144.717 142.068 143.398 142.068C142.738 142.068 142.129 142.423 141.926 142.829C141.774 143.235 141.012 143.591 140.251 143.591C139.49 143.591 137.256 144.149 135.277 144.86C131.978 146.027 131.013 146.128 122.08 146.128C116.802 146.128 110.914 145.976 109.087 145.824L105.737 145.469L107.564 143.641C108.63 142.575 109.949 140.494 110.609 138.921L111.726 136.129L118.933 135.774C123.298 135.622 127.866 135.064 130.455 134.454C138.271 132.577 146.291 127.958 155.529 120.04C159.741 116.385 164.817 114.863 168.218 116.182ZM207.401 126.536C211.056 135.47 212.731 138.566 214.609 139.784C215.776 140.545 216.132 141.053 215.878 141.814C215.37 143.591 214.66 144.098 212.477 144.098C211.005 144.098 210.599 144.25 211.157 144.606C211.817 145.012 211.817 145.063 211.157 145.316C202.529 148.108 200.702 148.565 200.143 148.006C199.839 147.651 198.57 144.859 197.301 141.763C196.032 138.718 194.306 134.708 193.494 132.932C191.819 129.48 191.819 128.871 193.494 128.871C194.053 128.871 194.611 128.465 194.763 127.907C194.915 127.349 195.677 126.689 196.489 126.384C198.265 125.775 198.874 124.506 198.012 123.187C197.656 122.628 197.453 122.121 197.555 122.019C198.925 120.801 201.564 119.735 202.986 119.837C204.711 119.989 204.762 120.04 207.401 126.536ZM21.6844 125.268C22.3442 124.709 22.395 124.862 22.0904 126.638C21.8874 127.704 21.4306 128.922 21.1261 129.328C20.72 129.886 20.8215 130.191 21.7351 130.8C22.3442 131.206 22.8518 131.967 22.8518 132.526C22.8518 133.033 23.4101 134.048 24.1207 134.759C24.8313 135.47 25.9987 137.246 26.7093 138.667C32.2417 149.732 42.596 160.036 53.8131 165.67C55.3358 166.431 57.5183 167.7 58.6349 168.41C59.7516 169.172 61.2742 170.035 62.0863 170.39C63.5075 170.999 63.9643 172.014 62.7462 172.014C62.3401 172.014 61.9341 171.659 61.7311 171.253C61.2742 170.035 60.6652 170.39 60.5637 171.963C60.4621 173.181 60.6652 173.486 61.8326 173.689C63.5583 174.044 63.9643 173.74 63.9643 172.217C63.9643 170.847 64.1166 170.796 65.487 171.507C66.4514 172.014 66.4006 172.217 64.6242 175.466C63.609 177.343 62.5431 179.374 62.2386 180.034C61.7818 180.947 61.4265 181.15 60.4114 180.896C59.7008 180.744 58.1781 180.389 56.96 180.135C53.5593 179.374 52.5442 178.562 55.285 178.714C56.5032 178.815 57.6198 178.612 57.6706 178.359C57.8228 178.054 56.2494 177.851 53.7116 177.851C49.8033 177.851 49.0927 177.699 44.0171 175.466C36.8097 172.319 32.2417 169.222 26.6077 163.639C13.8172 151.052 11.2794 139.175 18.6898 126.435C20.3647 123.491 20.5677 123.339 20.72 124.557C20.8723 125.674 21.0246 125.775 21.6844 125.268ZM255.112 143.641C259.68 144.25 263.233 145.875 265.213 148.26L266.634 149.935L265.467 150.087C264.857 150.189 262.523 150.037 260.239 149.732C258.005 149.428 254.858 149.174 253.184 149.174C249.935 149.174 249.428 149.783 251.306 151.509C252.168 152.27 253.437 152.524 257.396 152.777C261.812 153.031 262.878 153.285 265.873 154.808C269.019 156.432 271.253 158.767 270.39 159.63C270.238 159.833 268.664 159.68 266.989 159.325C263.589 158.614 256.584 158.868 255.721 159.731C255.315 160.137 255.417 160.645 256.026 161.558C256.736 162.675 257.244 162.878 259.274 162.878C265.365 162.878 272.674 165.111 275.161 167.751C275.77 168.41 276.075 169.019 275.821 169.07C275.567 169.121 272.116 169.172 268.157 169.172C259.985 169.222 258.767 169.629 260.899 171.71C261.964 172.674 263.081 172.978 267.598 173.435C270.948 173.791 274.095 174.45 275.618 175.11C278.562 176.379 281.201 179.12 281.201 180.896C281.201 182.318 280.592 182.47 272.978 182.876C255.366 183.84 227.755 194.042 209.026 206.478C200.854 211.959 194.763 217.136 190.347 222.466L187.048 226.425L186.896 224.395C186.541 219.471 190.55 208.711 194.865 202.975C196.134 201.3 196.946 199.676 196.946 198.813C196.946 197.595 196.743 197.392 195.474 197.392C192.784 197.392 188.825 203.178 184.307 213.837C183.495 215.766 183.089 216.223 182.632 215.766C180.298 213.431 185.373 199.27 190.855 192.621C193.19 189.83 193.596 187.545 191.819 186.987C189.688 186.277 184.967 192.773 180.196 203.128C179.282 205.006 178.369 206.376 178.064 206.224C177.76 206.021 177.252 205.158 176.846 204.244C176.186 202.671 176.288 202.214 178.166 197.189C180.348 191.251 181.871 188.764 186.642 183.282C190.347 179.018 190.703 177.597 188.165 177.597C186.693 177.597 185.932 178.156 182.937 181.252C179.232 185.109 176.897 188.256 174.511 192.57L173.141 195.057L172.532 193.585C172.126 192.469 172.075 191.2 172.481 188.916C174.258 178.003 185.475 166.126 202.58 157.092C222.273 146.687 241.56 141.763 255.112 143.641ZM105.686 151.001L107.209 151.813L105.787 153.285C105.026 154.097 104.214 154.757 104.011 154.757C103.351 154.757 101.422 151.255 101.778 150.696C102.235 149.935 103.909 150.087 105.686 151.001ZM110.508 158.411C110.457 160.086 110.711 160.898 111.168 160.594C111.472 160.391 111.574 159.782 111.371 159.224C111.168 158.513 111.269 158.31 111.624 158.513C112.335 158.97 112.335 160.695 111.675 161.102C110.812 161.609 109.29 160.898 108.985 159.833C108.782 159.02 109.543 158.005 110.457 157.802C110.508 157.802 110.559 158.107 110.508 158.411ZM15.0861 163.944C17.2686 166.177 20.6185 169.324 22.4965 170.897C24.3745 172.471 26.0494 174.298 26.2017 174.907C26.6077 176.379 29.6531 178.46 35.2363 181.099C37.9771 182.368 39.6013 183.383 39.6013 183.891C39.6013 184.348 39.246 184.703 38.84 184.703C38.4339 184.703 38.0786 184.449 38.0786 184.145C38.0786 183.739 37.8756 183.739 37.3173 184.196C36.1499 185.16 30.6682 184.297 27.3183 182.622C23.6131 180.744 22.8518 180.744 22.8518 182.571C22.8518 184.906 25.9479 187.19 30.719 188.459C34.4242 189.423 35.1348 190.083 32.9015 190.439C28.0289 191.301 19.7556 188.459 15.1876 184.348C9.19835 178.917 6.81281 171.151 8.84306 163.538C9.6044 160.645 10.0105 159.833 10.6703 159.833C10.9241 159.833 12.9036 161.66 15.0861 163.944ZM107.158 161.964C107.665 162.878 107.615 162.979 106.853 162.726C106.397 162.523 105.889 162.37 105.787 162.37C105.686 162.37 105.584 162.015 105.584 161.609C105.584 160.492 106.498 160.695 107.158 161.964ZM70.5626 174.349C70.5626 175.669 66.9589 182.165 66.1976 182.165C65.7915 182.165 65.487 181.962 65.487 181.709C65.487 181.099 68.5324 174.45 69.1415 173.689C69.7505 172.928 70.5626 173.283 70.5626 174.349ZM78.1761 176.176C78.1253 176.531 77.364 178.105 76.4504 179.628C74.9784 182.115 74.6231 182.419 72.9482 182.571L71.0702 182.724L72.4914 180.287C75.2322 175.669 75.3337 175.567 76.7549 175.567C77.567 175.567 78.1761 175.821 78.1761 176.176ZM82.5919 178.815C81.323 180.744 80.1048 182.115 79.5972 182.115C78.5314 182.165 78.3791 180.998 79.3942 180.186C79.8003 179.831 80.2571 179.069 80.4093 178.46C80.6631 177.343 82.9472 175.618 84.1146 175.567C84.4191 175.567 83.7085 177.039 82.5919 178.815ZM91.3727 176.075C91.9818 176.43 91.8803 176.633 90.8651 176.988C87.1599 178.359 86.5508 178.257 88.175 176.481C89.0887 175.466 90.2053 175.313 91.3727 176.075ZM44.1694 186.175C44.1694 186.429 43.8141 186.733 43.4081 186.936C42.6467 187.19 42.3929 186.683 43.002 186.074C43.4588 185.566 44.1694 185.617 44.1694 186.175ZM286.074 191.657C286.53 192.114 288.256 195.362 289.931 198.864C291.606 202.417 293.179 205.615 293.433 206.072C293.839 206.833 293.23 206.934 287.139 206.884C281.759 206.833 279.171 207.087 273.841 208.203C260.797 210.893 248.209 215.309 236.586 221.248C220.903 229.267 211.614 236.271 202.529 246.829C200.499 249.214 198.671 251.194 198.519 251.194C197.961 251.194 191.87 236.525 191.87 235.256C191.87 232.516 200.955 222.77 209.229 216.629C217.857 210.234 229.48 204.092 243.032 198.712C253.488 194.55 261.812 192.57 274.349 191.098C275.212 191.048 277.953 190.895 280.541 190.845C284.297 190.794 285.363 190.946 286.074 191.657ZM296.935 216.68C298.763 217.644 299.473 218.507 299.473 220.029C299.473 220.639 298.56 220.689 294.042 220.436C287.749 220.08 286.378 220.588 286.987 222.923C287.292 224.141 287.546 224.293 289.474 224.293C291.809 224.293 299.372 225.968 301.148 226.882C302.772 227.744 304.498 229.978 304.549 231.247C304.549 232.617 304.803 232.566 298.61 231.856C293.129 231.196 291.251 231.602 291.708 233.429C292.114 234.901 292.52 235.104 298.204 235.764C305.412 236.627 307.137 237.439 308.762 240.637C309.523 242.058 310.031 243.377 309.878 243.479C309.777 243.631 308.254 243.428 306.579 243.073C303.889 242.514 296.783 242.565 296.174 243.174C296.073 243.276 296.123 244.037 296.377 244.9C296.732 246.321 296.834 246.372 300.793 246.676C306.325 247.083 311.299 248.808 312.873 250.839C313.583 251.701 313.99 252.615 313.888 252.818C313.736 253.021 311.35 253.224 308.609 253.224C302.671 253.224 300.894 253.833 301.097 255.711C301.25 257.031 301.3 257.031 306.934 257.335C311.807 257.589 313.025 257.843 315.563 259.112C318.152 260.431 318.507 260.736 318.507 262.106V263.629L313.025 263.477C306.681 263.223 304.853 263.883 305.158 266.319L305.31 267.69L311.401 267.943C316.883 268.146 317.745 268.349 319.827 269.568C321.146 270.329 322.821 271.699 323.582 272.562C324.75 273.983 324.801 274.288 324.192 274.948C323.532 275.557 322.872 275.608 320.182 275.1C311.807 273.628 298.712 274.795 287.546 277.892C278.917 280.328 262.929 287.332 254.199 292.459C244.25 298.346 234.861 306.62 230.496 313.319L228.211 316.872L227.501 314.741C226.79 312.609 226.841 312.558 229.227 307.635C232.018 301.899 233.49 299.666 237.043 295.555C238.921 293.271 239.581 292.154 239.581 290.885C239.581 285.86 232.526 292.662 225.724 304.234C224.405 306.518 224.253 306.569 223.593 305.706C223.187 305.148 222.831 304.336 222.831 303.828C222.831 303.371 224.303 299.92 226.13 296.215C228.364 291.647 230.292 288.5 232.221 286.317C235.216 282.866 235.723 281.038 233.947 280.125C233.135 279.668 232.627 279.719 231.663 280.328C229.785 281.597 225.268 287.941 222.273 293.575L219.532 298.651L219.126 295.961C218.771 293.931 218.872 292.712 219.532 290.631C221.055 286.063 224.862 279.262 227.704 276.064C229.227 274.389 230.445 272.765 230.445 272.562C230.445 272.308 230.039 271.598 229.48 270.938C228.668 269.923 228.364 269.821 227.196 270.38C225.42 271.141 221.918 276.064 218.416 282.561L215.573 287.891L214.609 286.723C214.101 286.114 213.695 284.947 213.695 284.185C213.695 280.785 217.908 271.801 222.019 266.471C223.643 264.34 224.303 263.02 224.557 261.193C224.862 258.807 224.811 258.756 223.694 259.112C221.867 259.67 221.461 259.975 219.684 262.36C217.451 265.304 214.761 269.821 212.629 274.136C211.716 276.064 210.701 277.587 210.396 277.587C210.092 277.587 209.533 275.912 209.178 273.882L208.518 270.177L210.396 266.37C212.68 261.903 215.066 258.401 218.162 255.153C220.04 253.224 220.344 252.564 220.09 251.498C219.887 250.635 219.431 250.179 218.72 250.179C217.096 250.179 212.325 255.051 208.924 260.228L205.828 264.949L204.914 263.832C203.747 262.411 204.052 261.041 206.234 257.335C218.162 237.388 249.631 219.826 280.541 215.918C287.444 215.005 294.347 215.36 296.935 216.68ZM321.603 282.815C326.323 284.845 327.288 288.956 324.445 295.047C322.009 300.275 319.674 302.711 312.974 307.127C307.036 310.985 305.818 311.441 304.397 310.071C304.143 309.868 305.869 308.548 308.203 307.127C311.452 305.148 313.685 303.219 317.492 299.108C322.923 293.271 323.075 292.915 322.161 288.246C321.704 285.962 320.639 285.302 316.121 284.693C309.472 283.729 299.625 285.353 289.068 289.159C276.125 293.829 264.959 299.209 255.315 305.554C248.159 310.223 244.098 314.081 241.763 318.446C238.87 323.978 239.073 327.176 242.423 328.597C244.86 329.612 251.103 329.561 256.33 328.546C260.289 327.734 261.914 327.836 261.914 328.8C261.914 329.511 256.686 331.338 252.371 332.201C245.063 333.622 239.53 332.962 236.942 330.374C235.673 329.105 235.52 328.546 235.52 325.856C235.52 320.172 238.363 314.944 245.316 307.889C248.615 304.589 254.706 300.224 259.376 297.89C260.645 297.23 262.827 295.961 264.299 294.996C271.862 290.124 286.124 285.2 299.981 282.663C306.934 281.394 318.405 281.495 321.603 282.815ZM294.296 308.548C294.398 309.462 295.007 310.934 295.667 311.797C296.326 312.66 299.778 319.562 303.381 327.125C306.985 334.637 310.843 342.2 311.959 343.824C313.025 345.499 316.274 349.306 319.116 352.3C321.958 355.295 324.699 358.492 325.156 359.406C326.577 362.147 328.658 368.644 336.068 393.819C351.143 444.88 352.361 449.194 352.107 449.448C351.803 449.752 350.179 447.823 328.607 421.989C318.608 409.959 308 396.966 305.056 393.108C302.113 389.251 298.052 383.972 296.022 381.434C291.708 376.003 289.017 370.928 288.256 366.664C286.023 354.077 282.267 344.382 273.334 328.546C270.796 324.08 269.426 321.034 269.223 319.512C269.019 318.141 269.07 317.177 269.375 317.177C271.862 317.177 283.18 335.297 287.546 346.362C289.373 351.031 290.591 353.366 291.555 354.178C292.266 354.787 292.367 354.432 292.367 350.625C292.367 346.666 292.215 346.006 290.083 341.286C286.936 334.333 282.165 326.161 278.815 321.948C273.334 315.147 273.486 314.639 282.115 310.477C287.698 307.787 291.86 306.417 293.636 306.772C293.941 306.823 294.195 307.635 294.296 308.548Z" fill="black"/>
<path d="M294.905 368.847C294.905 372.349 298.255 377.171 320.131 404.731C323.227 408.64 327.744 414.578 330.13 417.928C337.287 427.825 340.078 431.328 341.195 431.937C342.21 432.495 342.261 432.394 341.956 430.414C341.449 426.658 334.089 415.949 318.405 396.154C305.361 379.759 303.381 377.12 299.93 372.095C296.073 366.512 294.905 365.7 294.905 368.847Z" fill="black"/>
</svg>
